<svg xmlns="http://www.w3.org/2000/svg" viewBox="0 0 512 512" fill="none" role="img" aria-label="Travailleso">
  <defs>
    <linearGradient id="travailleso-bg" x1="96" y1="72" x2="416" y2="440" gradientUnits="userSpaceOnUse">
      <stop stop-color="#4ade80"/>
      <stop offset="1" stop-color="#15803d"/>
    </linearGradient>
    <mask id="travailleso-mark">
      <rect width="512" height="512" fill="black"/>
      <path
        fill="white"
        d="
          M256 76
          C246 76 236 92 228 108
          C218 88 206 82 198 94
          C188 108 184 144 186 184
          C188 224 194 272 210 304
          C226 328 242 334 256 334
          C270 334 286 328 302 304
          C318 272 324 224 326 184
          C328 144 324 108 314 94
          C306 82 294 88 284 108
          C276 92 266 76 256 76
          Z
        "
      />
      <g transform="translate(254 224) rotate(45)">
        <path fill="black" d="M 28 -16 L 56 -4 L 48 4 L 20 -8 Z"/>
        <path fill="black" d="M 20 -8 L 48 4 L 40 12 L 12 0 Z"/>
        <path fill="black" d="M 12 0 L 20 -8 L 0 12 L -18 30 L -24 24 L -4 4 Z"/>
        <circle fill="black" cx="-14" cy="27" r="9"/>
      </g>
    </mask>
  </defs>

  <rect width="512" height="512" rx="112" fill="url(#travailleso-bg)"/>
  <rect width="512" height="512" rx="112" fill="white" mask="url(#travailleso-mark)"/>

  <path
    fill="white"
    d="M360 108 366 128 386 134 366 140 360 160 354 140 334 134 354 128 360 108 Z"
  />
  <path
    fill="white"
    d="M390 158 394 172 408 176 394 180 390 194 386 180 372 176 386 172 390 158 Z"
  />
</svg>
